<svg xmlns="http://www.w3.org/2000/svg" xmlns:xlink="http://www.w3.org/1999/xlink" contentStyleType="text/css" data-diagram-type="DESCRIPTION" height="703px" preserveAspectRatio="none" style="width:685px;height:703px;background:#FFFFFF;" version="1.1" viewBox="0 0 685 703" width="685px" zoomAndPan="magnify"><defs/><g><!--cluster Data Sources--><g id="cluster_Data Sources"><path d="M127.5,12 L217.9824,12 A3.75,3.75 0 0 1 220.4824,14.5 L227.4824,37.1201 L558.5,37.1201 A2.5,2.5 0 0 1 561,39.6201 L561,96.5 A2.5,2.5 0 0 1 558.5,99 L127.5,99 A2.5,2.5 0 0 1 125,96.5 L125,14.5 A2.5,2.5 0 0 1 127.5,12 " fill="transparent" style="stroke:#000000;stroke-width:1.5;"/><line style="stroke:#000000;stroke-width:1.5;" x1="125" x2="227.4824" y1="37.1201" y2="37.1201"/><text fill="#000000" font-family="sans-serif" font-size="14" font-weight="bold" lengthAdjust="spacing" textLength="89.4824" x="129" y="30.0439">Data Sources</text></g><!--cluster AI Investment System--><g id="cluster_AI Investment System"><path d="M16.5,138 L162.9961,138 A3.75,3.75 0 0 1 165.4961,140.5 L172.4961,163.1201 L675.5,163.1201 A2.5,2.5 0 0 1 678,165.6201 L678,616.5 A2.5,2.5 0 0 1 675.5,619 L16.5,619 A2.5,2.5 0 0 1 14,616.5 L14,140.5 A2.5,2.5 0 0 1 16.5,138 " fill="transparent" style="stroke:#000000;stroke-width:1.5;"/><line style="stroke:#000000;stroke-width:1.5;" x1="14" x2="172.4961" y1="163.1201" y2="163.1201"/><text fill="#000000" font-family="sans-serif" font-size="14" font-weight="bold" lengthAdjust="spacing" textLength="145.4961" x="18" y="156.0439">AI Investment System</text></g><!--entity Trading Decision--><g id="elem_Trading Decision"><rect fill="#F1F1F1" height="49.1201" rx="2.5" ry="2.5" style="stroke:#181818;stroke-width:0.5;" width="145.0479" x="274.5" y="648"/><rect fill="#F1F1F1" height="10" style="stroke:#181818;stroke-width:0.5;" width="15" x="399.5479" y="653"/><rect fill="#F1F1F1" height="2" style="stroke:#181818;stroke-width:0.5;" width="4" x="397.5479" y="655"/><rect fill="#F1F1F1" height="2" style="stroke:#181818;stroke-width:0.5;" width="4" x="397.5479" y="659"/><text fill="#000000" font-family="sans-serif" font-size="14" lengthAdjust="spacing" textLength="105.0479" x="289.5" y="684.0439">Trading Decision</text></g><!--entity akshare--><g id="elem_akshare"><rect fill="#F1F1F1" height="49.1201" rx="2.5" ry="2.5" style="stroke:#181818;stroke-width:0.5;" width="117.8135" x="133" y="42"/><rect fill="#F1F1F1" height="10" style="stroke:#181818;stroke-width:0.5;" width="15" x="230.8135" y="47"/><rect fill="#F1F1F1" height="2" style="stroke:#181818;stroke-width:0.5;" width="4" x="228.8135" y="49"/><rect fill="#F1F1F1" height="2" style="stroke:#181818;stroke-width:0.5;" width="4" x="228.8135" y="53"/><text fill="#000000" font-family="sans-serif" font-size="14" lengthAdjust="spacing" textLength="77.8135" x="148" y="78.0439">Akshare API</text></g><!--entity tushare--><g id="elem_tushare"><rect fill="#F1F1F1" height="49.1201" rx="2.5" ry="2.5" style="stroke:#181818;stroke-width:0.5;" width="117.8135" x="269" y="42"/><rect fill="#F1F1F1" height="10" style="stroke:#181818;stroke-width:0.5;" width="15" x="366.8135" y="47"/><rect fill="#F1F1F1" height="2" style="stroke:#181818;stroke-width:0.5;" width="4" x="364.8135" y="49"/><rect fill="#F1F1F1" height="2" style="stroke:#181818;stroke-width:0.5;" width="4" x="364.8135" y="53"/><text fill="#000000" font-family="sans-serif" font-size="14" lengthAdjust="spacing" textLength="77.8135" x="284" y="78.0439">Tushare API</text></g><!--entity sina--><g id="elem_sina"><rect fill="#F1F1F1" height="49.1201" rx="2.5" ry="2.5" style="stroke:#181818;stroke-width:0.5;" width="148.1719" x="405" y="42"/><rect fill="#F1F1F1" height="10" style="stroke:#181818;stroke-width:0.5;" width="15" x="533.1719" y="47"/><rect fill="#F1F1F1" height="2" style="stroke:#181818;stroke-width:0.5;" width="4" x="531.1719" y="49"/><rect fill="#F1F1F1" height="2" style="stroke:#181818;stroke-width:0.5;" width="4" x="531.1719" y="53"/><text fill="#000000" font-family="sans-serif" font-size="14" lengthAdjust="spacing" textLength="108.1719" x="420" y="78.0439">Sina Finance API</text></g><!--entity data--><g id="elem_data"><rect fill="#ADD8E6" height="68.2402" rx="2.5" ry="2.5" style="stroke:#00008B;stroke-width:0.5;" width="164.5234" x="245.5" y="168"/><rect fill="#ADD8E6" height="10" style="stroke:#00008B;stroke-width:0.5;" width="15" x="390.0234" y="173"/><rect fill="#ADD8E6" height="2" style="stroke:#00008B;stroke-width:0.5;" width="4" x="388.0234" y="175"/><rect fill="#ADD8E6" height="2" style="stroke:#00008B;stroke-width:0.5;" width="4" x="388.0234" y="179"/><text fill="#000000" font-family="sans-serif" font-size="14" font-style="italic" lengthAdjust="spacing" textLength="52.1582" x="296.6826" y="204.0439">&#171;Agent&#187;</text><text fill="#000000" font-family="sans-serif" font-size="14" lengthAdjust="spacing" textLength="124.5234" x="260.5" y="223.1641">A Share Data Agent</text></g><!--entity tech--><g id="elem_tech"><rect fill="#ADD8E6" height="68.2402" rx="2.5" ry="2.5" style="stroke:#00008B;stroke-width:0.5;" width="140.3926" x="22" y="293"/><rect fill="#ADD8E6" height="10" style="stroke:#00008B;stroke-width:0.5;" width="15" x="142.3926" y="298"/><rect fill="#ADD8E6" height="2" style="stroke:#00008B;stroke-width:0.5;" width="4" x="140.3926" y="300"/><rect fill="#ADD8E6" height="2" style="stroke:#00008B;stroke-width:0.5;" width="4" x="140.3926" y="304"/><text fill="#000000" font-family="sans-serif" font-size="14" font-style="italic" lengthAdjust="spacing" textLength="52.1582" x="61.1172" y="329.0439">&#171;Agent&#187;</text><text fill="#000000" font-family="sans-serif" font-size="14" lengthAdjust="spacing" textLength="100.3926" x="37" y="348.1641">Technical Agent</text></g><!--entity fund--><g id="elem_fund"><rect fill="#ADD8E6" height="68.2402" rx="2.5" ry="2.5" style="stroke:#00008B;stroke-width:0.5;" width="169.1924" x="180.5" y="293"/><rect fill="#ADD8E6" height="10" style="stroke:#00008B;stroke-width:0.5;" width="15" x="329.6924" y="298"/><rect fill="#ADD8E6" height="2" style="stroke:#00008B;stroke-width:0.5;" width="4" x="327.6924" y="300"/><rect fill="#ADD8E6" height="2" style="stroke:#00008B;stroke-width:0.5;" width="4" x="327.6924" y="304"/><text fill="#000000" font-family="sans-serif" font-size="14" font-style="italic" lengthAdjust="spacing" textLength="52.1582" x="234.0171" y="329.0439">&#171;Agent&#187;</text><text fill="#000000" font-family="sans-serif" font-size="14" lengthAdjust="spacing" textLength="129.1924" x="195.5" y="348.1641">Fundamentals Agent</text></g><!--entity sent--><g id="elem_sent"><rect fill="#ADD8E6" height="68.2402" rx="2.5" ry="2.5" style="stroke:#00008B;stroke-width:0.5;" width="143.5098" x="368" y="293"/><rect fill="#ADD8E6" height="10" style="stroke:#00008B;stroke-width:0.5;" width="15" x="491.5098" y="298"/><rect fill="#ADD8E6" height="2" style="stroke:#00008B;stroke-width:0.5;" width="4" x="489.5098" y="300"/><rect fill="#ADD8E6" height="2" style="stroke:#00008B;stroke-width:0.5;" width="4" x="489.5098" y="304"/><text fill="#000000" font-family="sans-serif" font-size="14" font-style="italic" lengthAdjust="spacing" textLength="52.1582" x="408.6758" y="329.0439">&#171;Agent&#187;</text><text fill="#000000" font-family="sans-serif" font-size="14" lengthAdjust="spacing" textLength="103.5098" x="383" y="348.1641">Sentiment Agent</text></g><!--entity val--><g id="elem_val"><rect fill="#ADD8E6" height="68.2402" rx="2.5" ry="2.5" style="stroke:#00008B;stroke-width:0.5;" width="138.8545" x="530.5" y="293"/><rect fill="#ADD8E6" height="10" style="stroke:#00008B;stroke-width:0.5;" width="15" x="649.3545" y="298"/><rect fill="#ADD8E6" height="2" style="stroke:#00008B;stroke-width:0.5;" width="4" x="647.3545" y="300"/><rect fill="#ADD8E6" height="2" style="stroke:#00008B;stroke-width:0.5;" width="4" x="647.3545" y="304"/><text fill="#000000" font-family="sans-serif" font-size="14" font-style="italic" lengthAdjust="spacing" textLength="52.1582" x="568.8481" y="329.0439">&#171;Agent&#187;</text><text fill="#000000" font-family="sans-serif" font-size="14" lengthAdjust="spacing" textLength="98.8545" x="545.5" y="348.1641">Valuation Agent</text></g><!--entity risk--><g id="elem_risk"><rect fill="#ADD8E6" height="68.2402" rx="2.5" ry="2.5" style="stroke:#00008B;stroke-width:0.5;" width="126.3652" x="284" y="418"/><rect fill="#ADD8E6" height="10" style="stroke:#00008B;stroke-width:0.5;" width="15" x="390.3652" y="423"/><rect fill="#ADD8E6" height="2" style="stroke:#00008B;stroke-width:0.5;" width="4" x="388.3652" y="425"/><rect fill="#ADD8E6" height="2" style="stroke:#00008B;stroke-width:0.5;" width="4" x="388.3652" y="429"/><text fill="#000000" font-family="sans-serif" font-size="14" font-style="italic" lengthAdjust="spacing" textLength="52.1582" x="316.1035" y="454.0439">&#171;Agent&#187;</text><text fill="#000000" font-family="sans-serif" font-size="14" lengthAdjust="spacing" textLength="86.3652" x="299" y="473.1641">Risk Manager</text></g><!--entity port--><g id="elem_port"><rect fill="#ADD8E6" height="68.2402" rx="2.5" ry="2.5" style="stroke:#00008B;stroke-width:0.5;" width="150.5029" x="271.5" y="543"/><rect fill="#ADD8E6" height="10" style="stroke:#00008B;stroke-width:0.5;" width="15" x="402.0029" y="548"/><rect fill="#ADD8E6" height="2" style="stroke:#00008B;stroke-width:0.5;" width="4" x="400.0029" y="550"/><rect fill="#ADD8E6" height="2" style="stroke:#00008B;stroke-width:0.5;" width="4" x="400.0029" y="554"/><text fill="#000000" font-family="sans-serif" font-size="14" font-style="italic" lengthAdjust="spacing" textLength="52.1582" x="315.6724" y="579.0439">&#171;Agent&#187;</text><text fill="#000000" font-family="sans-serif" font-size="14" lengthAdjust="spacing" textLength="110.5029" x="286.5" y="598.1641">Portfolio Manager</text></g><polygon fill="#181818" points="290.1106,167.679,286.1118,158.6785,286.3997,164.328,280.7501,164.6159,290.1106,167.679" style="stroke:#181818;stroke-width:1;"/><path d="M213.0292,91.0921 C223.8459,102.9855 237.3789,117.4997 250,130 C262.7502,142.6282 272.716,151.9714 285.6575,163.6578 " fill="transparent" style="stroke:#181818;stroke-width:1;"/><text fill="#000000" font-family="sans-serif" font-size="13" lengthAdjust="spacing" textLength="70.8018" x="252" y="125.8979">Market Data</text><polygon fill="#181818" points="328,167.9109,332,158.9109,328,162.9109,324,158.9109,328,167.9109" style="stroke:#181818;stroke-width:1;"/><path d="M328,91.0598 C328,112.3932 328,138.0413 328,161.9109 " fill="transparent" style="stroke:#181818;stroke-width:1;"/><text fill="#000000" font-family="sans-serif" font-size="13" lengthAdjust="spacing" textLength="84.5254" x="330" y="125.8979">Historical Data</text><polygon fill="#181818" points="374.0641,167.6978,383.6473,165.4259,378.0415,164.6679,378.7995,159.0621,374.0641,167.6978" style="stroke:#181818;stroke-width:1;"/><path d="M458.2493,91.2016 C447.2979,103.2571 433.3851,117.8825 420,130 C405.6414,142.9988 393.8871,152.597 378.837,164.0619 " fill="transparent" style="stroke:#181818;stroke-width:1;"/><text fill="#000000" font-family="sans-serif" font-size="13" lengthAdjust="spacing" textLength="101.1563" x="443" y="125.8979">Financial Reports</text><polygon fill="#181818" points="106.3672,292.9733,114.1864,286.985,108.76,288.583,107.162,283.1565,106.3672,292.9733" style="stroke:#181818;stroke-width:1;"/><path d="M245.0462,211.705 C209.4417,218.6946 168.9957,231.2933 138,254 C124.4784,263.9056 116.8026,273.8265 109.2385,287.7049 " fill="transparent" style="stroke:#181818;stroke-width:1;"/><text fill="#000000" font-family="sans-serif" font-size="13" lengthAdjust="spacing" textLength="120.6626" x="140" y="270.8979">Price &amp; Volume Data</text><polygon fill="#181818" points="263.2673,292.7067,267.6784,283.9009,263.4981,287.712,259.6869,283.5317,263.2673,292.7067" style="stroke:#181818;stroke-width:1;"/><path d="M284.3657,236.2915 C279.5118,241.712 275.1811,247.6515 272,254 C266.0925,265.7896 264.1304,274.0269 263.5442,286.7131 " fill="transparent" style="stroke:#181818;stroke-width:1;"/><text fill="#000000" font-family="sans-serif" font-size="13" lengthAdjust="spacing" textLength="97.5254" x="274" y="270.8979">Financial Metrics</text><polygon fill="#181818" points="409.667,292.6878,406.5651,283.3402,406.3006,288.9908,400.6499,288.7263,409.667,292.6878" style="stroke:#181818;stroke-width:1;"/><path d="M358.3088,236.2856 C374.2456,253.7876 389.6869,270.7455 405.6273,288.2515 " fill="transparent" style="stroke:#181818;stroke-width:1;"/><text fill="#000000" font-family="sans-serif" font-size="13" lengthAdjust="spacing" textLength="119.2026" x="393" y="270.8979">News &amp; Market Data</text><polygon fill="#181818" points="569.1104,292.7889,565.3715,283.6773,565.4971,289.3327,559.8417,289.4584,569.1104,292.7889" style="stroke:#181818;stroke-width:1;"/><path d="M410.5858,216.5457 C445.1383,224.3636 484.8762,236.2727 518,254 C536.7078,264.0121 550.4058,274.8976 564.7745,288.6415 " fill="transparent" style="stroke:#181818;stroke-width:1;"/><text fill="#000000" font-family="sans-serif" font-size="13" lengthAdjust="spacing" textLength="121.3926" x="549" y="270.8979">Financial Statements</text><polygon fill="#181818" points="283.7579,442.1248,275.6869,436.4804,278.8498,441.1704,274.1598,444.3333,283.7579,442.1248" style="stroke:#181818;stroke-width:1;"/><path d="M117.5766,361.2774 C129.6958,375.0336 145.1949,390.0577 162,400 C199.2759,422.0533 240.5104,433.715 277.8682,440.9795 " fill="transparent" style="stroke:#181818;stroke-width:1;"/><text fill="#000000" font-family="sans-serif" font-size="13" lengthAdjust="spacing" textLength="101.8862" x="164" y="395.8979">Technical Signals</text><polygon fill="#181818" points="294.0382,417.846,290.2056,408.7735,290.3896,414.4273,284.7357,414.6114,294.0382,417.846" style="stroke:#181818;stroke-width:1;"/><path d="M266.3555,361.0452 C268.1335,373.9807 271.7661,388.4533 279,400 C283.074,406.5028 283.9202,408.3658 289.6598,413.7436 " fill="transparent" style="stroke:#181818;stroke-width:1;"/><text fill="#000000" font-family="sans-serif" font-size="13" lengthAdjust="spacing" textLength="122.1289" x="281" y="395.8979">Fundamental Signals</text><polygon fill="#181818" points="388.96,417.7696,398.2104,414.3889,392.5544,414.2939,392.6494,408.6379,388.96,417.7696" style="stroke:#181818;stroke-width:1;"/><path d="M427.228,361.1192 C421.4628,373.9221 413.9277,388.2806 405,400 C400.2873,406.1864 399.0461,408.0167 393.2733,413.5988 " fill="transparent" style="stroke:#181818;stroke-width:1;"/><text fill="#000000" font-family="sans-serif" font-size="13" lengthAdjust="spacing" textLength="104.7808" x="420" y="395.8979">Sentiment Signals</text><polygon fill="#181818" points="410.4143,441.8317,420.0225,443.9957,415.3179,440.8546,418.4591,436.15,410.4143,441.8317" style="stroke:#181818;stroke-width:1;"/><path d="M574.4102,361.2551 C562.2885,375.0072 546.7912,390.0342 530,400 C493.4127,421.7151 453.1152,433.3229 416.2987,440.6591 " fill="transparent" style="stroke:#181818;stroke-width:1;"/><text fill="#000000" font-family="sans-serif" font-size="13" lengthAdjust="spacing" textLength="100.458" x="558" y="395.8979">Valuation Signals</text><polygon fill="#181818" points="347,542.6878,351,533.6878,347,537.6878,343,533.6878,347,542.6878" style="stroke:#181818;stroke-width:1;"/><path d="M347,486.2856 C347,503.7876 347,519.1819 347,536.6878 " fill="transparent" style="stroke:#181818;stroke-width:1;"/><text fill="#000000" font-family="sans-serif" font-size="13" lengthAdjust="spacing" textLength="99.6899" x="349" y="520.8979">Risk Assessment</text><polygon fill="#181818" points="347,647.7757,351,638.7757,347,642.7757,343,638.7757,347,647.7757" style="stroke:#181818;stroke-width:1;"/><path d="M347,611.2279 C347,623.3004 347,630.6893 347,641.7757 " fill="transparent" style="stroke:#181818;stroke-width:1;"/><!--SRC=[RP91Rzim38Nl-XLS3zkfbnsB8e2xe5Y0jGZgefSY1yvM7C6oP8XoYs3OVnz99x4p-1B4UX_9fqTzwHCs7OB7OnmoK6Sp1ZI6MXTwJDX15Ri-1XjocO_Umj3vxqig_3403rYrJOf3g7z47zFzVT6mj5h1BzSSyeCVh40nrJRz1wmnjQh_DQRdBjXOk5bZHYZZa2fBDphWlMZfWCb2iTti00bm_1RfTRYMyd2HIXSG7ladL9DE_7qrhjZ09dnOoftSfpnIjjrvB9JQMnsfvztadNlLVAuUR7K8haA_16KM1NhaV51ceASbRi-wkkOJfruM8E9_0hsX7p2x69QW3_J2l3XguOdtsjXq3IHMXDZ6bFVHkxYCzInBLD_60FO-Vi8-nGveN8uvhG5kRrUQ1TnnezJQh0Ncj8gv_DDHZacZKaIsCTV7RJcMNwoCfyjqzGKrroVtUv2h6wsHOecOYxVSsC9NU8j-wCQjJOp4UpNWoNAdYYP2icNYsNuIDvbVv89mibSzoepyMhXEVHO1_P4SQL96JKcHfCrLqoCfNSCa6RKq8sOlvCAegHaplOup8PvcmFGopW0x4ySUQbiv4aNzAI-5aZCNwdCfY2oHz3TwBFhxQyBQXGRMf_gT-GS0]--></g></svg>